<mxfile host="Electron" agent="Mozilla/5.0 (Macintosh; Intel Mac OS X 10_15_7) AppleWebKit/537.36 (KHTML, like Gecko) draw.io/28.2.8 Chrome/140.0.7339.240 Electron/38.4.0 Safari/537.36" version="28.2.8">
  <diagram name="Seite-1" id="vN4Cs9onie4NRsifLrZ1">
    <mxGraphModel dx="2946" dy="1209" grid="1" gridSize="10" guides="1" tooltips="1" connect="1" arrows="1" fold="1" page="1" pageScale="1" pageWidth="1169" pageHeight="827" math="0" shadow="0">
      <root>
        <mxCell id="0" />
        <mxCell id="1" parent="0" />
        <mxCell id="cMt3oUvXVxlJFS4ESvBC-1" value="" style="whiteSpace=wrap;html=1;aspect=fixed;strokeColor=none;fillColor=#000000;" parent="1" vertex="1">
          <mxGeometry x="545" y="374" width="80" height="80" as="geometry" />
        </mxCell>
        <mxCell id="cMt3oUvXVxlJFS4ESvBC-2" value="" style="endArrow=classic;html=1;rounded=0;" parent="1" edge="1">
          <mxGeometry width="50" height="50" relative="1" as="geometry">
            <mxPoint x="475" y="413.66" as="sourcePoint" />
            <mxPoint x="545" y="413.66" as="targetPoint" />
          </mxGeometry>
        </mxCell>
        <mxCell id="cMt3oUvXVxlJFS4ESvBC-3" value="" style="endArrow=classic;html=1;rounded=0;" parent="1" edge="1">
          <mxGeometry width="50" height="50" relative="1" as="geometry">
            <mxPoint x="570" y="454" as="sourcePoint" />
            <mxPoint x="570" y="500" as="targetPoint" />
          </mxGeometry>
        </mxCell>
        <mxCell id="cMt3oUvXVxlJFS4ESvBC-4" value="" style="endArrow=classic;html=1;rounded=0;" parent="1" edge="1">
          <mxGeometry width="50" height="50" relative="1" as="geometry">
            <mxPoint x="600" y="500" as="sourcePoint" />
            <mxPoint x="600" y="454" as="targetPoint" />
          </mxGeometry>
        </mxCell>
        <mxCell id="cMt3oUvXVxlJFS4ESvBC-5" value="" style="endArrow=classic;html=1;rounded=0;" parent="1" edge="1">
          <mxGeometry width="50" height="50" relative="1" as="geometry">
            <mxPoint x="625" y="413" as="sourcePoint" />
            <mxPoint x="695" y="413" as="targetPoint" />
          </mxGeometry>
        </mxCell>
        <mxCell id="cMt3oUvXVxlJFS4ESvBC-6" value="Request" style="text;html=1;whiteSpace=wrap;strokeColor=none;fillColor=none;align=center;verticalAlign=middle;rounded=0;" parent="1" vertex="1">
          <mxGeometry x="410" y="399" width="60" height="30" as="geometry" />
        </mxCell>
        <mxCell id="cMt3oUvXVxlJFS4ESvBC-7" value="Output" style="text;html=1;whiteSpace=wrap;strokeColor=none;fillColor=none;align=center;verticalAlign=middle;rounded=0;" parent="1" vertex="1">
          <mxGeometry x="700" y="399" width="60" height="30" as="geometry" />
        </mxCell>
        <mxCell id="cMt3oUvXVxlJFS4ESvBC-8" value="BaSyx Environment API" style="text;html=1;whiteSpace=wrap;strokeColor=none;fillColor=none;align=center;verticalAlign=middle;rounded=0;" parent="1" vertex="1">
          <mxGeometry x="517" y="500" width="135" height="30" as="geometry" />
        </mxCell>
        <mxCell id="cMt3oUvXVxlJFS4ESvBC-10" value="&lt;b&gt;BaSyx DPP API&lt;/b&gt;" style="text;html=1;whiteSpace=wrap;strokeColor=none;fillColor=none;align=center;verticalAlign=middle;rounded=0;" parent="1" vertex="1">
          <mxGeometry x="517.5" y="340" width="135" height="30" as="geometry" />
        </mxCell>
      </root>
    </mxGraphModel>
  </diagram>
</mxfile>
